# 3ds Max Wavefront OBJ Exporter v0.97b - (c)2007 guruware
# File Created: 27.05.2016 14:13:11

mtllib Hut.mtl

#
# object Line002
#

v  0.0000 30.6975 9.8734
v  0.7517 28.3427 9.8734
v  0.7517 28.3427 -9.8734
v  0.0000 30.6976 -9.8734
v  1.8880 26.0825 9.8734
v  1.8880 26.0825 -9.8734
v  3.3450 23.9014 9.8734
v  3.3450 23.9014 -9.8734
v  5.0584 21.7834 9.8734
v  5.0584 21.7834 -9.8734
v  6.9641 19.7128 9.8734
v  6.9641 19.7128 -9.8734
v  8.9980 17.6737 9.8734
v  8.9980 17.6737 -9.8734
v  11.0961 15.6505 9.8734
v  11.0961 15.6505 -9.8734
v  8.0867 15.6505 9.8734
v  8.0867 15.6505 -9.8734
v  8.0867 12.6411 9.8734
v  8.0867 12.6411 -9.8734
v  3.0710 12.6411 9.8734
v  3.0710 12.6411 -9.8734
v  3.0710 15.6505 9.8734
v  3.0710 15.6505 -9.8734
v  0.0000 15.6505 9.8734
v  0.0000 15.6505 -9.8734
v  -3.0710 15.6505 9.8734
v  -3.0710 15.6505 -9.8734
v  -3.0710 12.6411 9.8734
v  -3.0710 12.6411 -9.8734
v  -8.0867 12.6411 9.8734
v  -8.0867 12.6411 -9.8734
v  -8.0867 15.6505 9.8734
v  -8.0867 15.6505 -9.8734
v  -11.0961 15.6505 9.8734
v  -11.0961 15.6505 -9.8734
v  -8.9980 17.6737 9.8734
v  -8.9980 17.6737 -9.8734
v  -6.9641 19.7128 9.8734
v  -6.9641 19.7128 -9.8734
v  -5.0584 21.7834 9.8734
v  -5.0584 21.7834 -9.8734
v  -3.3450 23.9014 9.8734
v  -3.3450 23.9014 -9.8734
v  -1.8880 26.0825 9.8734
v  -1.8880 26.0825 -9.8734
v  -0.7517 28.3427 9.8734
v  -0.7517 28.3427 -9.8734
# 48 vertices

vn 0.9526 0.3041 -0.0000
vn 0.9259 0.3778 -0.0000
vn 0.8641 0.5033 -0.0000
vn 0.8053 0.5928 -0.0000
vn 0.7570 0.6534 -0.0000
vn 0.7220 0.6919 -0.0000
vn 0.7011 0.7131 -0.0000
vn 0.6942 0.7198 -0.0000
vn 0.0000 -1.0000 -0.0000
vn 1.0000 0.0000 -0.0000
vn -1.0000 0.0000 -0.0000
vn -0.6942 0.7198 -0.0000
vn -0.7011 0.7131 -0.0000
vn -0.7220 0.6919 -0.0000
vn -0.7570 0.6534 -0.0000
vn -0.8053 0.5928 -0.0000
vn -0.8641 0.5033 -0.0000
vn -0.9259 0.3778 -0.0000
vn -0.9526 0.3041 -0.0000
vn 0.0000 0.0000 -1.0000
vn 0.0000 0.0000 1.0000
# 21 vertex normals

vt 0.5078 0.0163 0.0000
vt 0.5407 0.0163 0.0000
vt 0.5407 0.9873 0.0000
vt 0.5078 0.9873 0.0000
vt 0.5904 0.0163 0.0000
vt 0.5904 0.9873 0.0000
vt 0.6542 0.0163 0.0000
vt 0.6542 0.9873 0.0000
vt 0.7291 0.0163 0.0000
vt 0.7291 0.9873 0.0000
vt 0.8125 0.0163 0.0000
vt 0.8125 0.9873 0.0000
vt 0.9015 0.0163 0.0000
vt 0.9015 0.9873 0.0000
vt 0.9933 0.0163 0.0000
vt 0.9933 0.9873 0.0000
vt 0.8616 0.0163 0.0000
vt 0.8616 0.9873 0.0000
vt 0.6422 0.0163 0.0000
vt 0.6422 0.9873 0.0000
vt 0.3735 0.0163 0.0000
vt 0.3735 0.9873 0.0000
vt 0.1540 0.0163 0.0000
vt 0.1540 0.9873 0.0000
vt 0.0224 0.0163 0.0000
vt 0.0224 0.9873 0.0000
vt 0.1142 0.0163 0.0000
vt 0.1142 0.9873 0.0000
vt 0.2031 0.0163 0.0000
vt 0.2031 0.9873 0.0000
vt 0.2865 0.0163 0.0000
vt 0.2865 0.9873 0.0000
vt 0.3615 0.0163 0.0000
vt 0.3615 0.9873 0.0000
vt 0.4252 0.0163 0.0000
vt 0.4252 0.9873 0.0000
vt 0.4749 0.0163 0.0000
vt 0.4749 0.9873 0.0000
vt 0.1725 0.0722 0.0000
vt 0.1725 0.2228 0.0000
vt 0.3768 0.2228 0.0000
vt 0.3768 0.0722 0.0000
vt 0.6268 0.0722 0.0000
vt 0.6268 0.2228 0.0000
vt 0.8311 0.2228 0.0000
vt 0.8311 0.0722 0.0000
vt 0.8682 0.3241 0.0000
vt 0.9536 0.2228 0.0000
vt 0.7854 0.4261 0.0000
vt 0.7078 0.5297 0.0000
vt 0.5018 0.2228 0.0000
vt 0.6380 0.6357 0.0000
vt 0.4712 0.8580 0.0000
vt 0.5018 0.9758 0.0000
vt 0.5324 0.8580 0.0000
vt 0.5787 0.7449 0.0000
vt 0.4249 0.7449 0.0000
vt 0.3656 0.6357 0.0000
vt 0.2958 0.5297 0.0000
vt 0.2182 0.4261 0.0000
vt 0.1354 0.3241 0.0000
vt 0.0500 0.2228 0.0000
# 62 texture coords

g Line002
usemtl 01___Default
f 1/1/1 2/2/2 3/3/2 4/4/1 
f 2/2/2 5/5/3 6/6/3 3/3/2 
f 5/5/3 7/7/4 8/8/4 6/6/3 
f 7/7/4 9/9/5 10/10/5 8/8/4 
f 9/9/5 11/11/6 12/12/6 10/10/5 
f 11/11/6 13/13/7 14/14/7 12/12/6 
f 13/13/7 15/15/8 16/16/8 14/14/7 
f 15/15/9 17/17/9 18/18/9 16/16/9 
f 17/17/10 19/17/10 20/18/10 18/18/10 
f 19/17/9 21/19/9 22/20/9 20/18/9 
f 21/19/11 23/19/11 24/20/11 22/20/11 
f 23/19/9 25/1/9 26/4/9 24/20/9 
f 25/1/9 27/21/9 28/22/9 26/4/9 
f 27/21/10 29/21/10 30/22/10 28/22/10 
f 29/21/9 31/23/9 32/24/9 30/22/9 
f 31/23/11 33/23/11 34/24/11 32/24/11 
f 33/23/9 35/25/9 36/26/9 34/24/9 
f 35/25/12 37/27/13 38/28/13 36/26/12 
f 37/27/13 39/29/14 40/30/14 38/28/13 
f 39/29/14 41/31/15 42/32/15 40/30/14 
f 41/31/15 43/33/16 44/34/16 42/32/15 
f 43/33/16 45/35/17 46/36/17 44/34/16 
f 45/35/17 47/37/18 48/38/18 46/36/17 
f 47/37/18 1/1/19 4/4/19 48/38/18 
f 32/39/20 34/40/20 28/41/20 30/42/20 
f 22/43/20 24/44/20 18/45/20 20/46/20 
f 14/47/20 16/48/20 18/45/20 12/49/20 
f 12/49/20 18/45/20 24/44/20 10/50/20 
f 10/50/20 24/44/20 26/51/20 8/52/20 
f 48/53/20 4/54/20 3/55/20 6/56/20 
f 46/57/20 48/53/20 6/56/20 8/52/20 
f 44/58/20 46/57/20 8/52/20 42/59/20 
f 42/59/20 8/52/20 26/51/20 28/41/20 
f 40/60/20 42/59/20 28/41/20 34/40/20 
f 38/61/20 40/60/20 34/40/20 36/62/20 
f 37/61/21 35/62/21 33/40/21 39/60/21 
f 2/55/21 1/54/21 47/53/21 5/56/21 
f 5/56/21 47/53/21 45/57/21 7/52/21 
f 7/52/21 45/57/21 43/58/21 41/59/21 
f 17/45/21 15/48/21 13/47/21 11/49/21 
f 21/43/21 19/46/21 17/45/21 23/44/21 
f 23/44/21 17/45/21 11/49/21 9/50/21 
f 25/51/21 23/44/21 9/50/21 7/52/21 
f 25/51/21 7/52/21 41/59/21 27/41/21 
f 27/41/21 41/59/21 39/60/21 33/40/21 
f 27/41/21 33/40/21 31/39/21 29/42/21 
# 46 polygons

