# 3ds Max Wavefront OBJ Exporter v0.97b - (c)2007 guruware
# File Created: 19.05.2016 21:45:35

mtllib Hut.mtl

#
# object Line002
#

v  0.0000 25.9190 -9.8734
v  0.0000 25.9189 9.8734
v  0.7517 23.5641 9.8734
v  0.7517 23.5641 -9.8734
v  1.8880 21.3039 9.8734
v  1.8880 21.3039 -9.8734
v  3.3450 19.1228 9.8734
v  3.3450 19.1228 -9.8734
v  5.0584 17.0048 9.8734
v  5.0584 17.0048 -9.8734
v  6.9641 14.9342 9.8734
v  6.9641 14.9342 -9.8734
v  8.9980 12.8951 9.8734
v  8.9980 12.8951 -9.8734
v  11.0961 10.8719 9.8734
v  11.0961 10.8719 -9.8734
v  8.0867 10.8719 9.8734
v  8.0867 10.8719 -9.8734
v  8.0867 7.8625 9.8734
v  8.0867 7.8625 -9.8734
v  3.0710 7.8625 9.8734
v  3.0710 7.8625 -9.8734
v  3.0710 10.8719 9.8734
v  3.0710 10.8719 -9.8734
v  0.0000 10.8719 9.8734
v  0.0000 10.8719 -9.8734
v  -3.0710 10.8719 9.8734
v  -3.0710 10.8719 -9.8734
v  -3.0710 7.8625 9.8734
v  -3.0710 7.8625 -9.8734
v  -8.0867 7.8625 9.8734
v  -8.0867 7.8625 -9.8734
v  -8.0867 10.8719 9.8734
v  -8.0867 10.8719 -9.8734
v  -11.0961 10.8719 9.8734
v  -11.0961 10.8719 -9.8734
v  -8.9980 12.8951 9.8734
v  -8.9980 12.8951 -9.8734
v  -6.9641 14.9342 9.8734
v  -6.9641 14.9342 -9.8734
v  -5.0584 17.0048 9.8734
v  -5.0584 17.0048 -9.8734
v  -3.3450 19.1228 9.8734
v  -3.3450 19.1228 -9.8734
v  -1.8880 21.3039 9.8734
v  -1.8880 21.3039 -9.8734
v  -0.7517 23.5641 9.8734
v  -0.7517 23.5641 -9.8734
# 48 vertices

vn 0.9526 0.3041 -0.0000
vn 0.9259 0.3778 -0.0000
vn 0.8641 0.5033 -0.0000
vn 0.8053 0.5928 -0.0000
vn 0.7570 0.6534 -0.0000
vn 0.7220 0.6919 -0.0000
vn 0.7011 0.7131 -0.0000
vn 0.6942 0.7198 -0.0000
vn 0.0000 -1.0000 -0.0000
vn 1.0000 0.0000 -0.0000
vn -1.0000 0.0000 -0.0000
vn -0.6942 0.7198 -0.0000
vn -0.7011 0.7131 -0.0000
vn -0.7220 0.6919 -0.0000
vn -0.7570 0.6534 -0.0000
vn -0.8053 0.5928 -0.0000
vn -0.8641 0.5033 -0.0000
vn -0.9259 0.3778 -0.0000
vn -0.9526 0.3041 -0.0000
vn 0.0000 0.0000 -1.0000
vn 0.0000 0.0000 1.0000
# 21 vertex normals

vt 0.5078 0.9873 0.0000
vt 0.5078 0.0163 0.0000
vt 0.5407 0.0163 0.0000
vt 0.5407 0.9873 0.0000
vt 0.5904 0.0163 0.0000
vt 0.5904 0.9873 0.0000
vt 0.6542 0.0163 0.0000
vt 0.6542 0.9873 0.0000
vt 0.7291 0.0163 0.0000
vt 0.7291 0.9873 0.0000
vt 0.8125 0.0163 0.0000
vt 0.8125 0.9873 0.0000
vt 0.9015 0.0163 0.0000
vt 0.9015 0.9873 0.0000
vt 0.9933 0.0163 0.0000
vt 0.9933 0.9873 0.0000
vt 0.8616 0.0163 0.0000
vt 0.8616 0.9873 0.0000
vt 0.6422 0.0163 0.0000
vt 0.6422 0.9873 0.0000
vt 0.3735 0.0163 0.0000
vt 0.3735 0.9873 0.0000
vt 0.1540 0.0163 0.0000
vt 0.1540 0.9873 0.0000
vt 0.0224 0.0163 0.0000
vt 0.0224 0.9873 0.0000
vt 0.1142 0.0163 0.0000
vt 0.1142 0.9873 0.0000
vt 0.2031 0.0163 0.0000
vt 0.2031 0.9873 0.0000
vt 0.2865 0.0163 0.0000
vt 0.2865 0.9873 0.0000
vt 0.3615 0.0163 0.0000
vt 0.3615 0.9873 0.0000
vt 0.4252 0.0163 0.0000
vt 0.4252 0.9873 0.0000
vt 0.4749 0.0163 0.0000
vt 0.4749 0.9873 0.0000
vt 0.3768 0.0722 0.0000
vt 0.1725 0.0722 0.0000
vt 0.1725 0.2228 0.0000
vt 0.3768 0.2228 0.0000
vt 0.8311 0.0722 0.0000
vt 0.6268 0.0722 0.0000
vt 0.6268 0.2228 0.0000
vt 0.8311 0.2228 0.0000
vt 0.7854 0.4261 0.0000
vt 0.8682 0.3241 0.0000
vt 0.9536 0.2228 0.0000
vt 0.7078 0.5297 0.0000
vt 0.5018 0.2228 0.0000
vt 0.6380 0.6357 0.0000
vt 0.5324 0.8580 0.0000
vt 0.5787 0.7449 0.0000
vt 0.4712 0.8580 0.0000
vt 0.5018 0.9758 0.0000
vt 0.4249 0.7449 0.0000
vt 0.2958 0.5297 0.0000
vt 0.3656 0.6357 0.0000
vt 0.2182 0.4261 0.0000
vt 0.0500 0.2228 0.0000
vt 0.1354 0.3241 0.0000
# 62 texture coords

g Line002
usemtl 01___Default
f 1/1/1 2/2/1 3/3/2 4/4/2 
f 4/4/2 3/3/2 5/5/3 6/6/3 
f 6/6/3 5/5/3 7/7/4 8/8/4 
f 8/8/4 7/7/4 9/9/5 10/10/5 
f 10/10/5 9/9/5 11/11/6 12/12/6 
f 12/12/6 11/11/6 13/13/7 14/14/7 
f 14/14/7 13/13/7 15/15/8 16/16/8 
f 16/16/9 15/15/9 17/17/9 18/18/9 
f 18/18/10 17/17/10 19/17/10 20/18/10 
f 20/18/9 19/17/9 21/19/9 22/20/9 
f 22/20/11 21/19/11 23/19/11 24/20/11 
f 24/20/9 23/19/9 25/2/9 26/1/9 
f 26/1/9 25/2/9 27/21/9 28/22/9 
f 28/22/10 27/21/10 29/21/10 30/22/10 
f 30/22/9 29/21/9 31/23/9 32/24/9 
f 32/24/11 31/23/11 33/23/11 34/24/11 
f 34/24/9 33/23/9 35/25/9 36/26/9 
f 36/26/12 35/25/12 37/27/13 38/28/13 
f 38/28/13 37/27/13 39/29/14 40/30/14 
f 40/30/14 39/29/14 41/31/15 42/32/15 
f 42/32/15 41/31/15 43/33/16 44/34/16 
f 44/34/16 43/33/16 45/35/17 46/36/17 
f 46/36/17 45/35/17 47/37/18 48/38/18 
f 48/38/18 47/37/18 2/2/19 1/1/19 
f 30/39/20 32/40/20 34/41/20 28/42/20 
f 20/43/20 22/44/20 24/45/20 18/46/20 
f 18/46/20 12/47/20 14/48/20 16/49/20 
f 12/47/20 18/46/20 24/45/20 10/50/20 
f 10/50/20 24/45/20 26/51/20 8/52/20 
f 4/53/20 6/54/20 48/55/20 1/56/20 
f 46/57/20 48/55/20 6/54/20 8/52/20 
f 8/52/20 42/58/20 44/59/20 46/57/20 
f 42/58/20 8/52/20 26/51/20 28/42/20 
f 40/60/20 42/58/20 28/42/20 34/41/20 
f 34/41/20 36/61/20 38/62/20 40/60/20 
f 33/41/21 39/60/21 37/62/21 35/61/21 
f 47/55/21 5/54/21 3/53/21 2/56/21 
f 5/54/21 47/55/21 45/57/21 7/52/21 
f 43/59/21 41/58/21 7/52/21 45/57/21 
f 13/48/21 11/47/21 17/46/21 15/49/21 
f 23/45/21 21/44/21 19/43/21 17/46/21 
f 23/45/21 17/46/21 11/47/21 9/50/21 
f 25/51/21 23/45/21 9/50/21 7/52/21 
f 25/51/21 7/52/21 41/58/21 27/42/21 
f 27/42/21 41/58/21 39/60/21 33/41/21 
f 29/39/21 27/42/21 33/41/21 31/40/21 
# 46 polygons

