# 3ds Max Wavefront OBJ Exporter v0.97b - (c)2007 guruware
# File Created: 08.05.2016 23:22:10

mtllib plane.mtl

#
# object Plane001
#

v  -19.6850 0.0000 -19.6850
v  -19.6850 0.0000 19.6850
v  19.6850 0.0000 19.6850
v  19.6850 0.0000 -19.6850
# 4 vertices

vn 0.0000 1.0000 -0.0000
# 1 vertex normals

vt 0.0000 1.0000 0.0000
vt 0.0000 0.0000 0.0000
vt 1.0000 0.0000 0.0000
vt 1.0000 1.0000 0.0000
# 4 texture coords

g Plane001
usemtl wire_028149177
f 1/1/1 2/2/1 3/3/1 4/4/1 
# 1 polygons

