# 3ds Max Wavefront OBJ Exporter v0.97b - (c)2007 guruware
# File Created: 11.05.2016 20:16:54

mtllib plateau.mtl

#
# object Plane002
#

v  -777.7267 5.9250 335.7729
v  -777.7267 5.9250 671.5457
v  -388.8633 5.9250 671.5457
v  -388.8633 5.9250 335.7729
v  0.0001 5.9250 671.5457
v  0.0001 5.9250 335.7729
v  388.8634 5.9250 671.5457
v  388.8634 5.9250 335.7729
v  777.7267 5.9250 671.5457
v  777.7267 5.9250 335.7729
v  -777.7267 5.9250 -0.0000
v  -388.8633 5.9250 -0.0000
v  0.0001 5.9250 -0.0000
v  388.8634 5.9250 -0.0000
v  777.7267 5.9250 -0.0000
v  -777.7267 5.9250 -335.7728
v  -388.8633 5.9250 -335.7728
v  0.0001 5.9250 -335.7728
v  388.8634 5.9250 -335.7728
v  777.7267 5.9250 -335.7728
v  -777.7267 5.9250 -671.5457
v  -388.8633 5.9250 -671.5457
v  0.0001 5.9250 -671.5457
v  388.8634 5.9250 -671.5457
v  777.7267 5.9250 -671.5457
v  -777.7267 -5.9250 335.7729
v  -388.8633 -5.9250 335.7729
v  -388.8633 -5.9250 671.5457
v  -777.7267 -5.9250 671.5457
v  0.0001 -5.9250 335.7729
v  0.0001 -5.9250 671.5457
v  388.8634 -5.9250 335.7729
v  388.8634 -5.9250 671.5457
v  777.7267 -5.9250 335.7729
v  777.7267 -5.9250 671.5457
v  -777.7267 -5.9250 -0.0000
v  -388.8633 -5.9250 -0.0000
v  0.0001 -5.9250 -0.0000
v  388.8634 -5.9250 -0.0000
v  777.7267 -5.9250 -0.0000
v  -777.7267 -5.9250 -335.7728
v  -388.8633 -5.9250 -335.7728
v  0.0001 -5.9250 -335.7728
v  388.8634 -5.9250 -335.7728
v  777.7267 -5.9250 -335.7728
v  -777.7267 -5.9250 -671.5457
v  -388.8633 -5.9250 -671.5457
v  0.0001 -5.9250 -671.5457
v  388.8634 -5.9250 -671.5457
v  777.7267 -5.9250 -671.5457
# 50 vertices

vn 0.0000 1.0000 -0.0000
vn 0.0000 -1.0000 -0.0000
vn 0.0000 0.0000 1.0000
vn -1.0000 0.0000 -0.0000
vn 1.0000 0.0000 -0.0000
vn 0.0000 0.0000 -1.0000
# 6 vertex normals

vt 0.0000 0.2500 0.0000
vt 0.0000 0.0000 0.0000
vt 0.2500 0.0000 0.0000
vt 0.2500 0.2500 0.0000
vt 0.5000 0.0000 0.0000
vt 0.5000 0.2500 0.0000
vt 0.7500 0.0000 0.0000
vt 0.7500 0.2500 0.0000
vt 1.0000 0.0000 0.0000
vt 1.0000 0.2500 0.0000
vt 0.0000 0.5000 0.0000
vt 0.2500 0.5000 0.0000
vt 0.5000 0.5000 0.0000
vt 0.7500 0.5000 0.0000
vt 1.0000 0.5000 0.0000
vt 0.0000 0.7500 0.0000
vt 0.2500 0.7500 0.0000
vt 0.5000 0.7500 0.0000
vt 0.7500 0.7500 0.0000
vt 1.0000 0.7500 0.0000
vt 0.0000 1.0000 0.0000
vt 0.2500 1.0000 0.0000
vt 0.5000 1.0000 0.0000
vt 0.7500 1.0000 0.0000
vt 1.0000 1.0000 0.0000
# 25 texture coords

g Plane002
usemtl Material__25
f 1/1/1 2/2/1 3/3/1 4/4/1 
f 4/4/1 3/3/1 5/5/1 6/6/1 
f 6/6/1 5/5/1 7/7/1 8/8/1 
f 8/8/1 7/7/1 9/9/1 10/10/1 
f 11/11/1 1/1/1 4/4/1 12/12/1 
f 12/12/1 4/4/1 6/6/1 13/13/1 
f 13/13/1 6/6/1 8/8/1 14/14/1 
f 14/14/1 8/8/1 10/10/1 15/15/1 
f 16/16/1 11/11/1 12/12/1 17/17/1 
f 17/17/1 12/12/1 13/13/1 18/18/1 
f 18/18/1 13/13/1 14/14/1 19/19/1 
f 19/19/1 14/14/1 15/15/1 20/20/1 
f 21/21/1 16/16/1 17/17/1 22/22/1 
f 22/22/1 17/17/1 18/18/1 23/23/1 
f 23/23/1 18/18/1 19/19/1 24/24/1 
f 24/24/1 19/19/1 20/20/1 25/25/1 
f 26/1/2 27/4/2 28/3/2 29/2/2 
f 27/4/2 30/6/2 31/5/2 28/3/2 
f 30/6/2 32/8/2 33/7/2 31/5/2 
f 32/8/2 34/10/2 35/9/2 33/7/2 
f 36/11/2 37/12/2 27/4/2 26/1/2 
f 37/12/2 38/13/2 30/6/2 27/4/2 
f 38/13/2 39/14/2 32/8/2 30/6/2 
f 39/14/2 40/15/2 34/10/2 32/8/2 
f 41/16/2 42/17/2 37/12/2 36/11/2 
f 42/17/2 43/18/2 38/13/2 37/12/2 
f 43/18/2 44/19/2 39/14/2 38/13/2 
f 44/19/2 45/20/2 40/15/2 39/14/2 
f 46/21/2 47/22/2 42/17/2 41/16/2 
f 47/22/2 48/23/2 43/18/2 42/17/2 
f 48/23/2 49/24/2 44/19/2 43/18/2 
f 49/24/2 50/25/2 45/20/2 44/19/2 
f 28/3/3 3/3/3 2/2/3 29/2/3 
f 29/2/4 2/2/4 1/1/4 26/1/4 
f 31/5/3 5/5/3 3/3/3 28/3/3 
f 33/7/3 7/7/3 5/5/3 31/5/3 
f 35/9/3 9/9/3 7/7/3 33/7/3 
f 34/10/5 10/10/5 9/9/5 35/9/5 
f 26/1/4 1/1/4 11/11/4 36/11/4 
f 40/15/5 15/15/5 10/10/5 34/10/5 
f 36/11/4 11/11/4 16/16/4 41/16/4 
f 45/20/5 20/20/5 15/15/5 40/15/5 
f 46/21/6 21/21/6 22/22/6 47/22/6 
f 41/16/4 16/16/4 21/21/4 46/21/4 
f 47/22/6 22/22/6 23/23/6 48/23/6 
f 48/23/6 23/23/6 24/24/6 49/24/6 
f 50/25/5 25/25/5 20/20/5 45/20/5 
f 49/24/6 24/24/6 25/25/6 50/25/6 
# 48 polygons

