# 3ds Max Wavefront OBJ Exporter v0.97b - (c)2007 guruware
# File Created: 18.05.2016 18:47:50

mtllib test.mtl

#
# object Box001
#

v  -9.4184 0.0000 -13.4304
v  -9.4184 0.0000 8.1861
v  -26.9497 0.0000 8.1861
v  -26.9497 0.0000 -13.4304
v  -9.4184 57.8607 -13.4304
v  -26.9497 57.8607 -13.4304
v  -26.9497 57.8607 8.1861
v  -9.4184 57.8607 8.1861
# 8 vertices

vn 0.0000 -1.0000 -0.0000
vn 0.0000 1.0000 -0.0000
vn 0.0000 0.0000 1.0000
vn 1.0000 0.0000 -0.0000
vn 0.0000 0.0000 -1.0000
vn -1.0000 0.0000 -0.0000
# 6 vertex normals

vt 0.0000 1.0000 0.0000
vt 0.0000 -0.0000 0.0000
vt 1.0000 0.0000 0.0000
vt 1.0000 1.0000 0.0000
vt 1.0000 1.0000 1.0000
vt 0.0000 1.0000 1.0000
vt 0.0000 0.0000 1.0000
vt 1.0000 -0.0000 1.0000
vt 1.0000 1.0000 -0.0000
vt 0.0000 0.0000 0.0000
vt 1.0000 0.0000 -0.0000
vt -0.0000 1.0000 1.0000
vt -0.0000 0.0000 1.0000
vt 1.0000 0.0000 1.0000
# 14 texture coords

g Box001
usemtl 01___Default
f 1/1/1 2/2/1 3/3/1 4/4/1 
f 5/5/2 6/6/2 7/7/2 8/8/2 
f 8/9/3 7/1/3 3/10/3 2/11/3 
f 5/5/4 8/12/4 2/13/4 1/14/4 
f 6/5/5 5/6/5 1/7/5 4/14/5 
f 7/4/6 6/1/6 4/10/6 3/3/6 
# 6 polygons

#
# object Box002
#

v  19.7283 0.0000 -11.9956
v  19.7283 0.0000 10.4099
v  3.8924 0.0000 10.4099
v  3.8924 0.0000 -11.9956
v  19.7283 57.2022 -11.9956
v  3.8924 57.2022 -11.9956
v  3.8924 57.2022 10.4099
v  19.7283 57.2022 10.4099
# 8 vertices

vn 0.0000 -1.0000 -0.0000
vn 0.0000 1.0000 -0.0000
vn 0.0000 0.0000 1.0000
vn 1.0000 0.0000 -0.0000
vn 0.0000 0.0000 -1.0000
vn -1.0000 0.0000 -0.0000
# 6 vertex normals

vt 0.0000 1.0000 0.0000
vt 0.0000 0.0000 0.0000
vt 1.0000 0.0000 0.0000
vt 1.0000 1.0000 0.0000
vt 1.0000 1.0000 1.0000
vt 0.0000 1.0000 1.0000
vt 0.0000 0.0000 1.0000
vt 1.0000 0.0000 1.0000
# 8 texture coords

g Box002
usemtl 02___Default
f 9/15/7 10/16/7 11/17/7 12/18/7 
f 13/19/8 14/20/8 15/21/8 16/22/8 
f 16/18/9 15/15/9 11/16/9 10/17/9 
f 13/19/10 16/20/10 10/21/10 9/22/10 
f 14/19/11 13/20/11 9/21/11 12/22/11 
f 15/18/12 14/15/12 12/16/12 11/17/12 
# 6 polygons