# 3ds Max Wavefront OBJ Exporter v0.97b - (c)2007 guruware
# File Created: 29.05.2016 00:02:06

mtllib Tile.mtl

#
# object Shape003
#

v  68.1910 10.3473 39.6735
v  34.0955 10.3473 59.3585
v  34.0955 0.0000 59.3585
v  68.1910 0.0000 39.6735
v  68.1910 10.3473 0.3034
v  68.1910 0.0000 0.3034
v  34.0955 10.3473 -19.5360
v  34.0955 0.0000 -19.5360
v  34.0955 10.3473 -59.0605
v  34.0955 0.0000 -59.0605
v  0.0000 10.3473 -78.7455
v  0.0000 0.0000 -78.7455
v  -34.0955 10.3473 -59.0605
v  -34.0955 0.0000 -59.0605
v  -34.0955 10.3473 -19.5360
v  -34.0955 0.0000 -19.5360
v  -68.1910 10.3473 0.3033
v  -68.1910 0.0000 0.3033
v  -68.1910 10.3473 39.6734
v  -68.1910 0.0000 39.6734
v  -34.0955 10.3473 59.3585
v  -34.0955 0.0000 59.3585
v  0.0000 10.3473 39.6735
v  0.0000 0.0000 39.6735
v  -31.8845 12.5583 -57.7840
v  -31.8845 12.5583 -18.2644
v  31.8845 12.5583 -57.7840
v  0.0000 12.5583 -76.1924
v  -34.0955 12.5583 56.8055
v  0.0000 12.5583 37.1205
v  -65.9800 12.5583 1.5749
v  -65.9800 12.5583 38.3969
v  31.8845 12.5583 -18.2644
v  34.0955 12.5583 56.8055
v  65.9800 12.5583 38.3970
v  65.9800 12.5583 1.5750
v  34.0955 11.3146 59.1990
v  68.0528 11.3146 39.5938
v  68.0528 11.3146 0.3829
v  33.9573 11.3146 -19.4565
v  33.9573 11.3146 -58.9807
v  0.0000 11.3146 -78.5859
v  -33.9573 11.3146 -58.9807
v  -33.9573 11.3146 -19.4565
v  -68.0528 11.3146 0.3828
v  -68.0528 11.3146 39.5937
v  -34.0955 11.3146 59.1990
v  0.0000 11.3146 39.5140
v  34.0955 12.0056 58.7203
v  67.6383 12.0056 39.3544
v  34.0955 12.4201 57.9225
v  66.9473 12.4201 38.9555
v  67.6383 12.0056 0.6213
v  66.9473 12.4201 1.0187
v  33.5428 12.0056 -19.2181
v  32.8518 12.4201 -18.8207
v  33.5428 12.0056 -58.7413
v  32.8518 12.4201 -58.3424
v  0.0000 12.0056 -78.1072
v  0.0000 12.4201 -77.3094
v  -33.5428 12.0056 -58.7413
v  -32.8518 12.4201 -58.3424
v  -33.5428 12.0056 -19.2181
v  -32.8518 12.4201 -18.8207
v  -67.6383 12.0056 0.6212
v  -66.9473 12.4201 1.0186
v  -67.6383 12.0056 39.3543
v  -66.9473 12.4201 38.9554
v  -34.0955 12.0056 58.7203
v  -34.0955 12.4201 57.9225
v  0.0000 12.0056 39.0353
v  0.0000 12.4201 38.2374
# 72 vertices

vn 0.8633 0.0796 0.4984
vn 0.0000 0.0796 0.9968
vn 0.0000 0.0000 1.0000
vn 0.8660 0.0000 0.5000
vn 0.8641 0.0795 -0.4970
vn 0.8669 0.0000 -0.4985
vn 0.8638 0.0838 -0.4968
vn 0.8633 0.0796 -0.4984
vn 0.8660 0.0000 -0.5000
vn 0.0000 0.0796 -0.9968
vn 0.0000 0.0000 -1.0000
vn -0.8633 0.0796 -0.4984
vn -0.8660 0.0000 -0.5000
vn -0.8638 0.0838 -0.4968
vn -0.8669 0.0000 -0.4985
vn -0.8641 0.0795 -0.4970
vn -0.8633 0.0796 0.4984
vn -0.8660 0.0000 0.5000
vn 0.0000 0.0839 0.9965
vn 0.0000 -1.0000 -0.0000
vn -0.0709 0.9966 -0.0409
vn -0.0357 0.9992 -0.0205
vn 0.0709 0.9966 -0.0409
vn 0.0000 0.9966 -0.0819
vn 0.0000 0.9966 0.0819
vn 0.0000 0.9992 0.0410
vn -0.0710 0.9966 -0.0408
vn -0.0709 0.9966 0.0409
vn 0.0357 0.9992 -0.0205
vn 0.0709 0.9966 0.0409
vn 0.0710 0.9966 -0.0408
vn 0.0000 0.3529 0.9357
vn 0.8103 0.3529 0.4678
vn 0.8112 0.3527 -0.4665
vn 0.7938 0.4017 -0.4565
vn 0.8103 0.3529 -0.4678
vn 0.0000 0.3529 -0.9357
vn -0.8103 0.3529 -0.4678
vn -0.7938 0.4017 -0.4565
vn -0.8112 0.3527 -0.4665
vn -0.8103 0.3529 0.4678
vn 0.0000 0.4021 0.9156
vn 0.0000 0.7133 0.7008
vn 0.6069 0.7133 0.3504
vn 0.0000 0.9374 0.3482
vn 0.3016 0.9374 0.1741
vn 0.6077 0.7132 -0.3495
vn 0.3020 0.9374 -0.1737
vn 0.5308 0.7906 -0.3053
vn 0.2094 0.9704 -0.1204
vn 0.6069 0.7133 -0.3504
vn 0.3016 0.9374 -0.1741
vn 0.0000 0.7133 -0.7008
vn 0.0000 0.9374 -0.3482
vn -0.6069 0.7133 -0.3504
vn -0.3016 0.9374 -0.1741
vn -0.5308 0.7906 -0.3053
vn -0.2094 0.9704 -0.1204
vn -0.6077 0.7132 -0.3495
vn -0.3020 0.9374 -0.1737
vn -0.6069 0.7133 0.3504
vn -0.3016 0.9374 0.1741
vn 0.0000 0.7910 0.6118
vn 0.0000 0.9705 0.2412
# 64 vertex normals

vt 0.8032 0.2430 0.9384
vt 0.6381 0.1376 0.9384
vt 0.6381 0.1376 0.5000
vt 0.8032 0.2430 0.5000
vt 0.7934 0.4368 0.9384
vt 0.7934 0.4368 0.5000
vt 0.6351 0.5443 0.9384
vt 0.6351 0.5443 0.5000
vt 0.6502 0.8158 0.9384
vt 0.6502 0.8158 0.5000
vt 0.4753 0.9268 0.9384
vt 0.4753 0.9268 0.5000
vt 0.3101 0.7988 0.9384
vt 0.3101 0.7988 0.5000
vt 0.3652 0.5485 0.9384
vt 0.3652 0.5485 0.5000
vt 0.1305 0.4006 0.9384
vt 0.1305 0.4006 0.5000
vt 0.1402 0.2315 0.9384
vt 0.1402 0.2315 0.5000
vt 0.3393 0.1950 0.9384
vt 0.3393 0.1950 0.5000
vt 0.5046 0.3004 0.9384
vt 0.5046 0.3004 0.5000
vt 0.3215 0.7931 1.5000
vt 0.3766 0.5429 1.5000
vt 0.6394 0.8090 1.5000
vt 0.4759 0.9143 1.5000
vt 0.3387 0.2075 1.5000
vt 0.5039 0.3130 1.5000
vt 0.1418 0.3950 1.5000
vt 0.1509 0.2383 1.5000
vt 0.6244 0.5375 1.5000
vt 0.6374 0.1501 1.5000
vt 0.7919 0.2487 1.5000
vt 0.7828 0.4301 1.5000
vt 0.6381 0.1383 1.1841
vt 0.8025 0.2433 1.1841
vt 0.7928 0.4364 1.1841
vt 0.6345 0.5439 1.1841
vt 0.6495 0.8154 1.1841
vt 0.4753 0.9261 1.1841
vt 0.3108 0.7985 1.1841
vt 0.3659 0.5481 1.1841
vt 0.1312 0.4003 1.1841
vt 0.1408 0.2319 1.1841
vt 0.3393 0.1957 1.1841
vt 0.5045 0.3012 1.1841
vt 0.6379 0.1407 1.3596
vt 0.8004 0.2444 1.3596
vt 0.6377 0.1446 1.4649
vt 0.7968 0.2462 1.4649
vt 0.7908 0.4352 1.3596
vt 0.7875 0.4331 1.4649
vt 0.6324 0.5426 1.3596
vt 0.6291 0.5405 1.4649
vt 0.6474 0.8141 1.3596
vt 0.6441 0.8120 1.4649
vt 0.4754 0.9237 1.3596
vt 0.4756 0.9198 1.4649
vt 0.3129 0.7974 1.3596
vt 0.3165 0.7956 1.4649
vt 0.3680 0.5472 1.3596
vt 0.3716 0.5453 1.4649
vt 0.1333 0.3993 1.3596
vt 0.1368 0.3975 1.4649
vt 0.1429 0.2331 1.3596
vt 0.1462 0.2352 1.4649
vt 0.3392 0.1981 1.3596
vt 0.3390 0.2021 1.4649
vt 0.5044 0.3035 1.3596
vt 0.5042 0.3075 1.4649
# 72 texture coords

g Shape003
usemtl Material__46
f 1/1/1 2/2/2 3/3/3 
f 3/3/3 4/4/4 1/1/1 
f 5/5/5 1/1/1 4/4/4 
f 4/4/4 6/6/6 5/5/5 
f 7/7/7 5/5/5 6/6/6 
f 6/6/6 8/8/6 7/7/7 
f 9/9/8 7/7/7 8/8/6 
f 8/8/6 10/10/9 9/9/8 
f 11/11/10 9/9/8 10/10/9 
f 10/10/9 12/12/11 11/11/10 
f 13/13/12 11/11/10 12/12/11 
f 12/12/11 14/14/13 13/13/12 
f 15/15/14 13/13/12 14/14/13 
f 14/14/13 16/16/15 15/15/14 
f 17/17/16 15/15/14 16/16/15 
f 16/16/15 18/18/15 17/17/16 
f 19/19/17 17/17/16 18/18/15 
f 18/18/15 20/20/18 19/19/17 
f 21/21/2 19/19/17 20/20/18 
f 20/20/18 22/22/3 21/21/2 
f 23/23/19 21/21/2 22/22/3 
f 22/22/3 24/24/3 23/23/19 
f 2/2/2 23/23/19 24/24/3 
f 24/24/3 3/3/3 2/2/2 
f 6/6/20 4/4/20 3/3/20 
f 3/3/20 24/24/20 6/6/20 
f 8/8/20 6/6/20 24/24/20 
f 24/24/20 16/16/20 8/8/20 
f 24/24/20 22/22/20 20/20/20 
f 20/20/20 18/18/20 24/24/20 
f 24/24/20 18/18/20 16/16/20 
f 8/8/20 16/16/20 12/12/20 
f 12/12/20 10/10/20 8/8/20 
f 12/12/20 16/16/20 14/14/20 
f 25/25/21 26/26/22 27/27/23 
f 27/27/23 28/28/24 25/25/21 
f 29/29/25 30/30/26 31/31/27 
f 31/31/27 32/32/28 29/29/25 
f 26/26/22 31/31/27 30/30/26 
f 30/30/26 33/33/29 26/26/22 
f 34/34/25 35/35/30 36/36/31 
f 36/36/31 30/30/26 34/34/25 
f 30/30/26 36/36/31 33/33/29 
f 26/26/22 33/33/29 27/27/23 
f 37/37/32 2/2/2 1/1/1 
f 1/1/1 38/38/33 37/37/32 
f 38/38/33 1/1/1 5/5/5 
f 5/5/5 39/39/34 38/38/33 
f 39/39/34 5/5/5 7/7/7 
f 7/7/7 40/40/35 39/39/34 
f 40/40/35 7/7/7 9/9/8 
f 9/9/8 41/41/36 40/40/35 
f 41/41/36 9/9/8 11/11/10 
f 11/11/10 42/42/37 41/41/36 
f 42/42/37 11/11/10 13/13/12 
f 13/13/12 43/43/38 42/42/37 
f 43/43/38 13/13/12 15/15/14 
f 15/15/14 44/44/39 43/43/38 
f 44/44/39 15/15/14 17/17/16 
f 17/17/16 45/45/40 44/44/39 
f 45/45/40 17/17/16 19/19/17 
f 19/19/17 46/46/41 45/45/40 
f 46/46/41 19/19/17 21/21/2 
f 21/21/2 47/47/32 46/46/41 
f 47/47/32 21/21/2 23/23/19 
f 23/23/19 48/48/42 47/47/32 
f 48/48/42 23/23/19 2/2/2 
f 2/2/2 37/37/32 48/48/42 
f 49/49/43 37/37/32 38/38/33 
f 38/38/33 50/50/44 49/49/43 
f 51/51/45 49/49/43 50/50/44 
f 50/50/44 52/52/46 51/51/45 
f 34/34/25 51/51/45 52/52/46 
f 52/52/46 35/35/30 34/34/25 
f 50/50/44 38/38/33 39/39/34 
f 39/39/34 53/53/47 50/50/44 
f 52/52/46 50/50/44 53/53/47 
f 53/53/47 54/54/48 52/52/46 
f 35/35/30 52/52/46 54/54/48 
f 54/54/48 36/36/31 35/35/30 
f 53/53/47 39/39/34 40/40/35 
f 40/40/35 55/55/49 53/53/47 
f 54/54/48 53/53/47 55/55/49 
f 55/55/49 56/56/50 54/54/48 
f 36/36/31 54/54/48 56/56/50 
f 56/56/50 33/33/29 36/36/31 
f 40/40/35 41/41/36 57/57/51 
f 57/57/51 55/55/49 40/40/35 
f 55/55/49 57/57/51 58/58/52 
f 58/58/52 56/56/50 55/55/49 
f 56/56/50 58/58/52 27/27/23 
f 27/27/23 33/33/29 56/56/50 
f 57/57/51 41/41/36 42/42/37 
f 42/42/37 59/59/53 57/57/51 
f 58/58/52 57/57/51 59/59/53 
f 59/59/53 60/60/54 58/58/52 
f 27/27/23 58/58/52 60/60/54 
f 60/60/54 28/28/24 27/27/23 
f 59/59/53 42/42/37 43/43/38 
f 43/43/38 61/61/55 59/59/53 
f 60/60/54 59/59/53 61/61/55 
f 61/61/55 62/62/56 60/60/54 
f 28/28/24 60/60/54 62/62/56 
f 62/62/56 25/25/21 28/28/24 
f 61/61/55 43/43/38 44/44/39 
f 44/44/39 63/63/57 61/61/55 
f 62/62/56 61/61/55 63/63/57 
f 63/63/57 64/64/58 62/62/56 
f 25/25/21 62/62/56 64/64/58 
f 64/64/58 26/26/22 25/25/21 
f 44/44/39 45/45/40 65/65/59 
f 65/65/59 63/63/57 44/44/39 
f 63/63/57 65/65/59 66/66/60 
f 66/66/60 64/64/58 63/63/57 
f 64/64/58 66/66/60 31/31/27 
f 31/31/27 26/26/22 64/64/58 
f 65/65/59 45/45/40 46/46/41 
f 46/46/41 67/67/61 65/65/59 
f 66/66/60 65/65/59 67/67/61 
f 67/67/61 68/68/62 66/66/60 
f 31/31/27 66/66/60 68/68/62 
f 68/68/62 32/32/28 31/31/27 
f 67/67/61 46/46/41 47/47/32 
f 47/47/32 69/69/43 67/67/61 
f 68/68/62 67/67/61 69/69/43 
f 69/69/43 70/70/45 68/68/62 
f 32/32/28 68/68/62 70/70/45 
f 70/70/45 29/29/25 32/32/28 
f 69/69/43 47/47/32 48/48/42 
f 48/48/42 71/71/63 69/69/43 
f 70/70/45 69/69/43 71/71/63 
f 71/71/63 72/72/64 70/70/45 
f 29/29/25 70/70/45 72/72/64 
f 72/72/64 30/30/26 29/29/25 
f 48/48/42 37/37/32 49/49/43 
f 49/49/43 71/71/63 48/48/42 
f 71/71/63 49/49/43 51/51/45 
f 51/51/45 72/72/64 71/71/63 
f 72/72/64 51/51/45 34/34/25 
f 34/34/25 30/30/26 72/72/64 
# 140 faces

