# 3ds Max Wavefront OBJ Exporter v0.97b - (c)2007 guruware
# File Created: 12.05.2016 15:17:24

mtllib Tile.mtl

#
# object Shape002
#

v  34.0955 0.0000 69.0520
v  68.1910 0.0000 49.3670
v  68.1910 3.9370 49.3670
v  34.0955 2.2650 69.0520
v  35.5435 3.9370 68.2160
v  34.9100 3.8325 68.5817
v  34.4575 3.5190 68.8430
v  34.1860 2.9965 68.9997
v  68.1910 0.0000 9.9969
v  68.1910 2.2650 9.9969
v  68.1910 2.9965 10.1014
v  68.1910 3.5190 10.4149
v  68.1910 3.8325 10.9374
v  68.1910 3.9370 11.6689
v  34.0955 2.2650 -9.8425
v  34.0955 0.0000 -9.8425
v  34.0955 2.2650 -49.3670
v  34.0955 0.0000 -49.3670
v  0.0000 2.2650 -69.0520
v  0.0000 0.0000 -69.0520
v  -34.0955 2.2650 -49.3670
v  -34.0955 -0.0000 -49.3670
v  -34.0955 2.2650 -9.8425
v  -34.0955 -0.0000 -9.8425
v  -68.1910 2.2650 9.9968
v  -68.1910 -0.0000 9.9968
v  -68.1910 2.2649 49.3669
v  -68.1910 -0.0000 49.3669
v  -34.0955 2.2650 69.0520
v  -34.0955 -0.0000 69.0520
v  -0.0000 2.2650 49.3670
v  -0.0000 -0.0000 49.3670
v  -66.5189 3.9370 10.9584
v  -66.5189 3.9370 48.4016
v  -34.0955 3.9370 67.1213
v  -0.0000 3.9370 47.4362
v  32.4234 3.9370 -8.8809
v  -32.4234 3.9370 -8.8809
v  32.4235 3.9370 -48.4016
v  0.0000 3.9370 -67.1213
v  -32.4234 3.9370 -48.4016
v  33.9910 2.9965 -9.7824
v  33.9910 2.9965 -49.3066
v  0.0000 2.9965 -68.9313
v  -33.9910 2.9965 -49.3066
v  -33.9910 2.9965 -9.7824
v  -68.0865 2.9965 10.0569
v  -68.0865 2.9965 49.3066
v  -34.0955 2.9965 68.9313
v  -0.0000 2.9965 49.2463
v  33.6775 3.5190 -9.6021
v  33.1550 3.8325 -9.3016
v  33.6775 3.5190 -49.1256
v  33.1550 3.8325 -48.8239
v  0.0000 3.5190 -68.5693
v  0.0000 3.8325 -67.9660
v  -33.6775 3.5190 -49.1256
v  -33.1549 3.8325 -48.8239
v  -33.6775 3.5190 -9.6021
v  -33.1550 3.8325 -9.3016
v  -67.7730 3.5190 10.2372
v  -67.2505 3.8325 10.5377
v  -67.7730 3.5190 49.1256
v  -67.2505 3.8325 48.8239
v  -34.0955 3.5190 68.5693
v  -34.0955 3.8325 67.9659
v  -0.0000 3.5190 48.8843
v  -0.0000 3.8325 48.2809
# 68 vertices

vn 0.5000 0.0000 0.8660
vn 0.5000 -0.0000 0.8660
vn 1.0000 0.0000 0.0000
vn 0.8638 0.0837 -0.4969
vn 0.5019 0.0627 -0.8626
vn 0.5029 0.0000 -0.8643
vn 0.8669 0.0000 -0.4985
vn 0.8633 0.0796 -0.4984
vn 0.8660 0.0000 -0.5000
vn 0.0000 0.0796 -0.9968
vn 0.0000 -0.0000 -1.0000
vn -0.8633 0.0796 -0.4984
vn -0.8660 -0.0000 -0.5000
vn -0.8638 0.0838 -0.4968
vn -0.8669 -0.0000 -0.4985
vn -0.8641 0.0795 -0.4970
vn -0.8633 0.0796 0.4984
vn -0.8660 -0.0000 0.5000
vn -0.0000 0.0796 0.9968
vn -0.0000 -0.0000 1.0000
vn -0.0000 0.0838 0.9965
vn -0.4992 0.0630 0.8642
vn -0.5000 -0.0000 0.8660
vn 0.0000 -1.0000 0.0000
vn 0.0000 -1.0000 -0.0000
vn -0.0710 0.9966 -0.0408
vn -0.0709 0.9966 0.0409
vn -0.0000 0.9966 0.0819
vn -0.0001 0.9992 0.0410
vn -0.0276 0.9985 0.0472
vn -0.0000 1.0000 0.0000
vn 0.0273 0.9985 -0.0473
vn 0.0355 0.9992 -0.0205
vn -0.0357 0.9992 -0.0205
vn 0.0709 0.9966 -0.0409
vn -0.0000 0.9966 -0.0819
vn -0.0709 0.9966 -0.0409
vn 0.4774 0.3134 -0.8209
vn 0.7937 0.4016 -0.4570
vn 0.8103 0.3529 -0.4678
vn -0.0000 0.3529 -0.9357
vn -0.8103 0.3529 -0.4678
vn -0.7938 0.4017 -0.4565
vn -0.8112 0.3527 -0.4665
vn -0.8103 0.3529 0.4678
vn -0.0000 0.3529 0.9357
vn -0.0001 0.4021 0.9156
vn -0.4754 0.3141 0.8218
vn 0.3590 0.6992 -0.6183
vn 0.5304 0.7906 -0.3061
vn 0.1564 0.9500 -0.2701
vn 0.2090 0.9704 -0.1209
vn 0.6069 0.7133 -0.3504
vn 0.3016 0.9374 -0.1741
vn -0.0000 0.7133 -0.7008
vn -0.0000 0.9374 -0.3482
vn -0.6069 0.7133 -0.3504
vn -0.3016 0.9374 -0.1741
vn -0.5308 0.7906 -0.3053
vn -0.2094 0.9704 -0.1204
vn -0.6077 0.7132 -0.3495
vn -0.3020 0.9374 -0.1737
vn -0.6069 0.7133 0.3504
vn -0.3016 0.9374 0.1741
vn -0.0000 0.7133 0.7008
vn -0.0000 0.9374 0.3482
vn -0.0004 0.7910 0.6118
vn -0.0003 0.9705 0.2412
vn -0.3585 0.6999 0.6178
vn -0.1570 0.9501 0.2695
# 70 vertex normals

vt 0.6681 0.1557 -1.3546
vt 0.8429 0.2554 -1.3546
vt 0.8429 0.2554 1.0000
vt 0.6681 0.1557 0.0000
vt 0.6755 0.1600 1.0000
vt 0.6723 0.1581 0.9375
vt 0.6700 0.1568 0.7500
vt 0.6686 0.1560 0.4375
vt 0.8429 0.4547 -1.3546
vt 0.8429 0.4547 0.0000
vt 0.8429 0.4542 0.4375
vt 0.8429 0.4526 0.7500
vt 0.8429 0.4500 0.9375
vt 0.8429 0.4463 1.0000
vt 0.6681 0.5552 0.0000
vt 0.6681 0.5552 -1.3546
vt 0.6681 0.7553 0.0000
vt 0.6681 0.7553 -1.3546
vt 0.4933 0.8550 0.0000
vt 0.4933 0.8550 -1.3546
vt 0.3185 0.7553 0.0000
vt 0.3185 0.7553 -1.3546
vt 0.3185 0.5552 0.0000
vt 0.3185 0.5552 -1.3546
vt 0.1437 0.4547 0.0000
vt 0.1437 0.4547 -1.3546
vt 0.1437 0.2554 0.0000
vt 0.1437 0.2554 -1.3546
vt 0.3185 0.1557 0.0000
vt 0.3185 0.1557 -1.3546
vt 0.4933 0.2554 0.0000
vt 0.4933 0.2554 -1.3546
vt 0.1522 0.4499 1.0000
vt 0.1522 0.2603 1.0000
vt 0.3185 0.1655 1.0000
vt 0.4933 0.2652 1.0000
vt 0.6595 0.5503 1.0000
vt 0.3270 0.5503 1.0000
vt 0.6595 0.7504 1.0000
vt 0.4933 0.8452 1.0000
vt 0.3270 0.7504 1.0000
vt 0.6676 0.5549 0.4375
vt 0.6676 0.7550 0.4375
vt 0.4933 0.8544 0.4375
vt 0.3190 0.7550 0.4375
vt 0.3190 0.5549 0.4375
vt 0.1442 0.4544 0.4375
vt 0.1442 0.2557 0.4375
vt 0.3185 0.1563 0.4375
vt 0.4933 0.2560 0.4375
vt 0.6660 0.5540 0.7500
vt 0.6633 0.5525 0.9375
vt 0.6660 0.7541 0.7500
vt 0.6633 0.7526 0.9375
vt 0.4933 0.8526 0.7500
vt 0.4933 0.8495 0.9375
vt 0.3206 0.7541 0.7500
vt 0.3233 0.7526 0.9375
vt 0.3206 0.5540 0.7500
vt 0.3233 0.5525 0.9375
vt 0.1458 0.4535 0.7500
vt 0.1485 0.4520 0.9375
vt 0.1458 0.2566 0.7500
vt 0.1485 0.2581 0.9375
vt 0.3185 0.1582 0.7500
vt 0.3185 0.1612 0.9375
vt 0.4933 0.2578 0.7500
vt 0.4933 0.2609 0.9375
# 68 texture coords

g Shape002
usemtl 01___Default
f 1/1/1 2/2/1 3/3/1 4/4/1 
f 3/3/1 5/5/1 6/6/2 7/7/2 
f 3/3/1 7/7/2 8/8/1 4/4/1 
f 9/9/3 10/10/3 11/11/3 12/12/3 
f 9/9/3 12/12/3 13/13/3 14/14/3 
f 2/2/3 9/9/3 14/14/3 3/3/3 
f 15/15/4 10/10/5 9/9/6 16/16/7 
f 17/17/8 15/15/4 16/16/7 18/18/9 
f 19/19/10 17/17/8 18/18/9 20/20/11 
f 21/21/12 19/19/10 20/20/11 22/22/13 
f 23/23/14 21/21/12 22/22/13 24/24/15 
f 25/25/16 23/23/14 24/24/15 26/26/15 
f 27/27/17 25/25/16 26/26/15 28/28/18 
f 29/29/19 27/27/17 28/28/18 30/30/20 
f 31/31/21 29/29/19 30/30/20 32/32/20 
f 4/4/22 31/31/21 32/32/20 1/1/23 
f 20/20/24 18/18/24 16/16/25 22/22/24 
f 24/24/25 22/22/24 16/16/25 32/32/25 
f 2/2/25 1/1/25 32/32/25 9/9/25 
f 16/16/25 9/9/25 32/32/25 
f 26/26/25 24/24/25 32/32/25 30/30/25 
f 26/26/25 30/30/25 28/28/25 
f 33/33/26 34/34/27 35/35/28 36/36/29 
f 36/36/29 5/5/30 3/3/31 14/14/32 
f 36/36/29 14/14/32 37/37/33 38/38/34 
f 37/37/33 39/39/35 40/40/36 41/41/37 
f 37/37/33 41/41/37 38/38/34 
f 33/33/26 36/36/29 38/38/34 
f 11/11/38 10/10/5 15/15/4 42/42/39 
f 42/42/39 15/15/4 17/17/8 43/43/40 
f 43/43/40 17/17/8 19/19/10 44/44/41 
f 44/44/41 19/19/10 21/21/12 45/45/42 
f 45/45/42 21/21/12 23/23/14 46/46/43 
f 46/46/43 23/23/14 25/25/16 47/47/44 
f 47/47/44 25/25/16 27/27/17 48/48/45 
f 48/48/45 27/27/17 29/29/19 49/49/46 
f 49/49/46 29/29/19 31/31/21 50/50/47 
f 50/50/47 31/31/21 4/4/22 8/8/48 
f 12/12/49 11/11/38 42/42/39 51/51/50 
f 13/13/51 12/12/49 51/51/50 52/52/52 
f 14/14/32 13/13/51 52/52/52 37/37/33 
f 51/51/50 42/42/39 43/43/40 53/53/53 
f 52/52/52 51/51/50 53/53/53 54/54/54 
f 37/37/33 52/52/52 54/54/54 39/39/35 
f 53/53/53 43/43/40 44/44/41 55/55/55 
f 54/54/54 53/53/53 55/55/55 56/56/56 
f 39/39/35 54/54/54 56/56/56 40/40/36 
f 55/55/55 44/44/41 45/45/42 57/57/57 
f 56/56/56 55/55/55 57/57/57 58/58/58 
f 40/40/36 56/56/56 58/58/58 41/41/37 
f 57/57/57 45/45/42 46/46/43 59/59/59 
f 58/58/58 57/57/57 59/59/59 60/60/60 
f 41/41/37 58/58/58 60/60/60 38/38/34 
f 59/59/59 46/46/43 47/47/44 61/61/61 
f 60/60/60 59/59/59 61/61/61 62/62/62 
f 38/38/34 60/60/60 62/62/62 33/33/26 
f 61/61/61 47/47/44 48/48/45 63/63/63 
f 62/62/62 61/61/61 63/63/63 64/64/64 
f 33/33/26 62/62/62 64/64/64 34/34/27 
f 63/63/63 48/48/45 49/49/46 65/65/65 
f 64/64/64 63/63/63 65/65/65 66/66/66 
f 34/34/27 64/64/64 66/66/66 35/35/28 
f 65/65/65 49/49/46 50/50/47 67/67/67 
f 66/66/66 65/65/65 67/67/67 68/68/68 
f 35/35/28 66/66/66 68/68/68 36/36/29 
f 67/67/67 50/50/47 8/8/48 7/7/69 
f 68/68/68 67/67/67 7/7/69 6/6/70 
f 36/36/29 68/68/68 6/6/70 5/5/30 
# 64 polygons - 4 triangles

