# 3ds Max Wavefront OBJ Exporter v0.97b - (c)2007 guruware
# File Created: 14.05.2016 21:15:36

mtllib Tile.mtl

#
# object Shape003
#

v  68.1910 1.7260 39.6735
v  34.0955 1.7260 59.3585
v  34.0955 0.0000 59.3585
v  68.1910 0.0000 39.6735
v  68.1910 1.7260 0.3034
v  68.1910 0.0000 0.3034
v  34.0955 1.7260 -19.5360
v  34.0955 0.0000 -19.5360
v  34.0955 1.7260 -59.0605
v  34.0955 0.0000 -59.0605
v  0.0000 1.7260 -78.7455
v  0.0000 0.0000 -78.7455
v  -34.0955 1.7260 -59.0605
v  -34.0955 0.0000 -59.0605
v  -34.0955 1.7260 -19.5360
v  -34.0955 0.0000 -19.5360
v  -68.1910 1.7260 0.3033
v  -68.1910 0.0000 0.3033
v  -68.1910 1.7260 39.6734
v  -68.1910 0.0000 39.6734
v  -34.0955 1.7260 59.3585
v  -34.0955 0.0000 59.3585
v  0.0000 1.7260 39.6735
v  0.0000 0.0000 39.6735
v  0.0000 3.9370 -76.1924
v  -31.8845 3.9370 -57.7840
v  -31.8845 3.9370 -18.2644
v  31.8845 3.9370 -57.7840
v  -65.9800 3.9370 38.3969
v  -34.0955 3.9370 56.8055
v  -0.0000 3.9370 37.1205
v  -65.9800 3.9370 1.5749
v  31.8845 3.9370 -18.2644
v  34.0955 3.9370 56.8055
v  65.9800 3.9370 38.3970
v  65.9800 3.9370 1.5750
v  34.0955 2.6933 59.1990
v  68.0528 2.6933 39.5938
v  68.0528 2.6933 0.3829
v  33.9573 2.6933 -19.4565
v  33.9573 2.6933 -58.9807
v  0.0000 2.6933 -78.5859
v  -33.9573 2.6933 -58.9807
v  -33.9573 2.6933 -19.4565
v  -68.0528 2.6933 0.3828
v  -68.0528 2.6933 39.5937
v  -34.0955 2.6933 59.1990
v  -0.0000 2.6933 39.5140
v  34.0955 3.3843 58.7203
v  67.6383 3.3843 39.3544
v  34.0955 3.7988 57.9225
v  66.9473 3.7988 38.9555
v  67.6383 3.3843 0.6213
v  66.9473 3.7988 1.0187
v  33.5428 3.3843 -19.2181
v  32.8518 3.7988 -18.8207
v  33.5428 3.3843 -58.7413
v  32.8518 3.7988 -58.3424
v  0.0000 3.3843 -78.1072
v  0.0000 3.7988 -77.3094
v  -33.5428 3.3843 -58.7413
v  -32.8518 3.7988 -58.3424
v  -33.5428 3.3843 -19.2181
v  -32.8518 3.7988 -18.8207
v  -67.6383 3.3843 0.6212
v  -66.9473 3.7988 1.0186
v  -67.6383 3.3843 39.3543
v  -66.9473 3.7988 38.9554
v  -34.0955 3.3843 58.7203
v  -34.0955 3.7988 57.9225
v  -0.0000 3.3843 39.0353
v  -0.0000 3.7988 38.2374
# 72 vertices

vn 0.8633 0.0796 0.4984
vn -0.0000 0.0796 0.9968
vn 0.0000 0.0000 1.0000
vn 0.8660 0.0000 0.5000
vn 0.8641 0.0795 -0.4970
vn 0.8669 0.0000 -0.4985
vn 0.8638 0.0838 -0.4968
vn 0.8633 0.0796 -0.4984
vn 0.8660 0.0000 -0.5000
vn 0.0000 0.0796 -0.9968
vn 0.0000 0.0000 -1.0000
vn -0.8633 0.0796 -0.4984
vn -0.8660 0.0000 -0.5000
vn -0.8638 0.0838 -0.4968
vn -0.8669 0.0000 -0.4985
vn -0.8641 0.0795 -0.4970
vn -0.8633 0.0796 0.4984
vn -0.8660 0.0000 0.5000
vn -0.0000 0.0000 1.0000
vn 0.0000 0.0839 0.9965
vn 0.0000 -1.0000 -0.0000
vn -0.0000 0.9966 -0.0819
vn -0.0709 0.9966 -0.0409
vn -0.0357 0.9992 -0.0205
vn 0.0709 0.9966 -0.0409
vn -0.0709 0.9966 0.0409
vn 0.0000 0.9966 0.0819
vn -0.0000 0.9992 0.0410
vn -0.0710 0.9966 -0.0408
vn 0.0357 0.9992 -0.0205
vn 0.0709 0.9966 0.0409
vn 0.0710 0.9966 -0.0408
vn -0.0000 0.3529 0.9357
vn 0.8103 0.3529 0.4678
vn 0.8112 0.3527 -0.4665
vn 0.7938 0.4017 -0.4565
vn 0.8103 0.3529 -0.4678
vn 0.0000 0.3529 -0.9357
vn -0.8103 0.3529 -0.4678
vn -0.7938 0.4017 -0.4565
vn -0.8112 0.3527 -0.4665
vn -0.8103 0.3529 0.4678
vn -0.0000 0.4021 0.9156
vn 0.0000 0.7133 0.7008
vn 0.6069 0.7133 0.3504
vn -0.0000 0.9374 0.3482
vn 0.3016 0.9374 0.1741
vn 0.6077 0.7132 -0.3495
vn 0.3020 0.9374 -0.1737
vn 0.5308 0.7906 -0.3053
vn 0.2094 0.9704 -0.1204
vn 0.6069 0.7133 -0.3504
vn 0.3016 0.9374 -0.1741
vn -0.0000 0.7133 -0.7008
vn 0.0000 0.9374 -0.3482
vn -0.6069 0.7133 -0.3504
vn -0.3016 0.9374 -0.1741
vn -0.5308 0.7906 -0.3053
vn -0.2094 0.9704 -0.1204
vn -0.6077 0.7132 -0.3495
vn -0.3020 0.9374 -0.1737
vn -0.6069 0.7133 0.3504
vn -0.3016 0.9374 0.1741
vn -0.0000 0.7133 0.7008
vn -0.0000 0.7910 0.6118
vn 0.0000 0.9705 0.2412
# 66 vertex normals

vt 0.8457 0.2616 0.9384
vt 0.6726 0.1629 0.9384
vt 0.6726 0.1629 0.5000
vt 0.8457 0.2616 0.5000
vt 0.8457 0.4590 0.9384
vt 0.8457 0.4590 0.5000
vt 0.6726 0.5585 0.9384
vt 0.6726 0.5585 0.5000
vt 0.6726 0.7568 0.9384
vt 0.6726 0.7568 0.5000
vt 0.4994 0.8555 0.9384
vt 0.4994 0.8555 0.5000
vt 0.3262 0.7568 0.9384
vt 0.3262 0.7568 0.5000
vt 0.3262 0.5585 0.9384
vt 0.3262 0.5585 0.5000
vt 0.1531 0.4590 0.9384
vt 0.1531 0.4590 0.5000
vt 0.1531 0.2616 0.9384
vt 0.1531 0.2616 0.5000
vt 0.3262 0.1629 0.9384
vt 0.3262 0.1629 0.5000
vt 0.4994 0.2616 0.9384
vt 0.4994 0.2616 0.5000
vt 0.4994 0.8427 1.5000
vt 0.3375 0.7504 1.5000
vt 0.3375 0.5522 1.5000
vt 0.6613 0.7504 1.5000
vt 0.1643 0.2680 1.5000
vt 0.3262 0.1757 1.5000
vt 0.4994 0.2744 1.5000
vt 0.1643 0.4527 1.5000
vt 0.6613 0.5522 1.5000
vt 0.6726 0.1757 1.5000
vt 0.8345 0.2680 1.5000
vt 0.8345 0.4527 1.5000
vt 0.6726 0.1637 1.1841
vt 0.8450 0.2620 1.1841
vt 0.8450 0.4586 1.1841
vt 0.6719 0.5581 1.1841
vt 0.6719 0.7564 1.1841
vt 0.4994 0.8547 1.1841
vt 0.3269 0.7564 1.1841
vt 0.3269 0.5581 1.1841
vt 0.1538 0.4586 1.1841
vt 0.1538 0.2620 1.1841
vt 0.3262 0.1637 1.1841
vt 0.4994 0.2624 1.1841
vt 0.6726 0.1661 1.3596
vt 0.8429 0.2632 1.3596
vt 0.6726 0.1701 1.4649
vt 0.8394 0.2652 1.4649
vt 0.8429 0.4575 1.3596
vt 0.8394 0.4555 1.4649
vt 0.6697 0.5570 1.3596
vt 0.6662 0.5550 1.4649
vt 0.6697 0.7552 1.3596
vt 0.6662 0.7532 1.4649
vt 0.4994 0.8523 1.3596
vt 0.4994 0.8483 1.4649
vt 0.3290 0.7552 1.3596
vt 0.3326 0.7532 1.4649
vt 0.3290 0.5570 1.3596
vt 0.3326 0.5550 1.4649
vt 0.1559 0.4575 1.3596
vt 0.1594 0.4555 1.4649
vt 0.1559 0.2632 1.3596
vt 0.1594 0.2652 1.4649
vt 0.3262 0.1661 1.3596
vt 0.3262 0.1701 1.4649
vt 0.4994 0.2648 1.3596
vt 0.4994 0.2688 1.4649
# 72 texture coords

g Shape003
usemtl 01___Default
f 1/1/1 2/2/2 3/3/3 4/4/4 
f 5/5/5 1/1/1 4/4/4 6/6/6 
f 7/7/7 5/5/5 6/6/6 8/8/6 
f 9/9/8 7/7/7 8/8/6 10/10/9 
f 11/11/10 9/9/8 10/10/9 12/12/11 
f 13/13/12 11/11/10 12/12/11 14/14/13 
f 15/15/14 13/13/12 14/14/13 16/16/15 
f 17/17/16 15/15/14 16/16/15 18/18/15 
f 19/19/17 17/17/16 18/18/15 20/20/18 
f 21/21/2 19/19/17 20/20/18 22/22/19 
f 23/23/20 21/21/2 22/22/19 24/24/3 
f 2/2/2 23/23/20 24/24/3 3/3/3 
f 6/6/21 4/4/21 3/3/21 24/24/21 
f 8/8/21 6/6/21 24/24/21 16/16/21 
f 24/24/21 22/22/21 20/20/21 18/18/21 
f 24/24/21 18/18/21 16/16/21 
f 10/10/21 8/8/21 16/16/21 12/12/21 
f 12/12/21 16/16/21 14/14/21 
f 25/25/22 26/26/23 27/27/24 28/28/25 
f 29/29/26 30/30/27 31/31/28 32/32/29 
f 27/27/24 32/32/29 31/31/28 33/33/30 
f 34/34/27 35/35/31 36/36/32 31/31/28 
f 31/31/28 36/36/32 33/33/30 
f 27/27/24 33/33/30 28/28/25 
f 37/37/33 2/2/2 1/1/1 38/38/34 
f 38/38/34 1/1/1 5/5/5 39/39/35 
f 39/39/35 5/5/5 7/7/7 40/40/36 
f 40/40/36 7/7/7 9/9/8 41/41/37 
f 41/41/37 9/9/8 11/11/10 42/42/38 
f 42/42/38 11/11/10 13/13/12 43/43/39 
f 43/43/39 13/13/12 15/15/14 44/44/40 
f 44/44/40 15/15/14 17/17/16 45/45/41 
f 45/45/41 17/17/16 19/19/17 46/46/42 
f 46/46/42 19/19/17 21/21/2 47/47/33 
f 47/47/33 21/21/2 23/23/20 48/48/43 
f 48/48/43 23/23/20 2/2/2 37/37/33 
f 49/49/44 37/37/33 38/38/34 50/50/45 
f 51/51/46 49/49/44 50/50/45 52/52/47 
f 34/34/27 51/51/46 52/52/47 35/35/31 
f 50/50/45 38/38/34 39/39/35 53/53/48 
f 52/52/47 50/50/45 53/53/48 54/54/49 
f 35/35/31 52/52/47 54/54/49 36/36/32 
f 53/53/48 39/39/35 40/40/36 55/55/50 
f 54/54/49 53/53/48 55/55/50 56/56/51 
f 36/36/32 54/54/49 56/56/51 33/33/30 
f 55/55/50 40/40/36 41/41/37 57/57/52 
f 56/56/51 55/55/50 57/57/52 58/58/53 
f 33/33/30 56/56/51 58/58/53 28/28/25 
f 57/57/52 41/41/37 42/42/38 59/59/54 
f 58/58/53 57/57/52 59/59/54 60/60/55 
f 28/28/25 58/58/53 60/60/55 25/25/22 
f 59/59/54 42/42/38 43/43/39 61/61/56 
f 60/60/55 59/59/54 61/61/56 62/62/57 
f 25/25/22 60/60/55 62/62/57 26/26/23 
f 61/61/56 43/43/39 44/44/40 63/63/58 
f 62/62/57 61/61/56 63/63/58 64/64/59 
f 26/26/23 62/62/57 64/64/59 27/27/24 
f 63/63/58 44/44/40 45/45/41 65/65/60 
f 64/64/59 63/63/58 65/65/60 66/66/61 
f 27/27/24 64/64/59 66/66/61 32/32/29 
f 65/65/60 45/45/41 46/46/42 67/67/62 
f 66/66/61 65/65/60 67/67/62 68/68/63 
f 32/32/29 66/66/61 68/68/63 29/29/26 
f 67/67/62 46/46/42 47/47/33 69/69/64 
f 68/68/63 67/67/62 69/69/64 70/70/46 
f 29/29/26 68/68/63 70/70/46 30/30/27 
f 69/69/64 47/47/33 48/48/43 71/71/65 
f 70/70/46 69/69/64 71/71/65 72/72/66 
f 30/30/27 70/70/46 72/72/66 31/31/28 
f 71/71/65 48/48/43 37/37/33 49/49/44 
f 72/72/66 71/71/65 49/49/44 51/51/46 
f 31/31/28 72/72/66 51/51/46 34/34/27 
# 68 polygons - 4 triangles

