# 3ds Max Wavefront OBJ Exporter v0.97b - (c)2007 guruware
# File Created: 19.05.2016 21:41:35

mtllib Tile.mtl

#
# object Shape003
#

v  34.0955 5.6528 59.3585
v  34.0955 0.0000 59.3585
v  68.1910 0.0000 39.6735
v  68.1910 5.6528 39.6735
v  68.1910 0.0000 0.3034
v  68.1910 5.6528 0.3034
v  34.0955 0.0000 -19.5360
v  34.0955 5.6528 -19.5360
v  34.0955 0.0000 -59.0605
v  34.0955 5.6528 -59.0605
v  0.0000 0.0000 -78.7455
v  0.0000 5.6528 -78.7455
v  -34.0955 0.0000 -59.0605
v  -34.0955 5.6528 -59.0605
v  -34.0955 0.0000 -19.5360
v  -34.0955 5.6528 -19.5360
v  -68.1910 0.0000 0.3033
v  -68.1910 5.6528 0.3033
v  -68.1910 0.0000 39.6734
v  -68.1910 5.6528 39.6734
v  -34.0955 0.0000 59.3585
v  -34.0955 5.6528 59.3585
v  0.0000 0.0000 39.6735
v  0.0000 5.6528 39.6735
v  -31.8845 7.8638 -57.7840
v  -31.8845 7.8638 -18.2644
v  31.8845 7.8638 -57.7840
v  0.0000 7.8638 -76.1924
v  -34.0955 7.8638 56.8055
v  0.0000 7.8638 37.1205
v  -65.9800 7.8638 1.5749
v  -65.9800 7.8638 38.3969
v  31.8845 7.8638 -18.2644
v  34.0955 7.8638 56.8055
v  65.9800 7.8638 38.3970
v  65.9800 7.8638 1.5750
v  68.0528 6.6201 39.5938
v  34.0955 6.6201 59.1990
v  68.0528 6.6201 0.3829
v  33.9573 6.6201 -19.4565
v  33.9573 6.6201 -58.9807
v  0.0000 6.6201 -78.5859
v  -33.9573 6.6201 -58.9807
v  -33.9573 6.6201 -19.4565
v  -68.0528 6.6201 0.3828
v  -68.0528 6.6201 39.5937
v  -34.0955 6.6201 59.1990
v  0.0000 6.6201 39.5140
v  67.6383 7.3111 39.3544
v  34.0955 7.3111 58.7203
v  66.9473 7.7256 38.9555
v  34.0955 7.7256 57.9225
v  67.6383 7.3111 0.6213
v  66.9473 7.7256 1.0187
v  33.5428 7.3111 -19.2181
v  32.8518 7.7256 -18.8207
v  33.5428 7.3111 -58.7413
v  32.8518 7.7256 -58.3424
v  0.0000 7.3111 -78.1072
v  0.0000 7.7256 -77.3094
v  -33.5428 7.3111 -58.7413
v  -32.8518 7.7256 -58.3424
v  -33.5428 7.3111 -19.2181
v  -32.8518 7.7256 -18.8207
v  -67.6383 7.3111 0.6212
v  -66.9473 7.7256 1.0186
v  -67.6383 7.3111 39.3543
v  -66.9473 7.7256 38.9554
v  -34.0955 7.3111 58.7203
v  -34.0955 7.7256 57.9225
v  0.0000 7.3111 39.0353
v  0.0000 7.7256 38.2374
# 72 vertices

vn 0.0000 0.0796 0.9968
vn 0.0000 0.0000 1.0000
vn 0.8660 0.0000 0.5000
vn 0.8633 0.0796 0.4984
vn 0.8669 0.0000 -0.4985
vn 0.8641 0.0795 -0.4970
vn 0.8638 0.0838 -0.4968
vn 0.8660 0.0000 -0.5000
vn 0.8633 0.0796 -0.4984
vn 0.0000 0.0000 -1.0000
vn 0.0000 0.0796 -0.9968
vn -0.8660 0.0000 -0.5000
vn -0.8633 0.0796 -0.4984
vn -0.8669 0.0000 -0.4985
vn -0.8638 0.0838 -0.4968
vn -0.8641 0.0795 -0.4970
vn -0.8660 0.0000 0.5000
vn -0.8633 0.0796 0.4984
vn 0.0000 0.0839 0.9965
vn 0.0000 -1.0000 -0.0000
vn -0.0709 0.9966 -0.0409
vn -0.0357 0.9992 -0.0205
vn 0.0709 0.9966 -0.0409
vn 0.0000 0.9966 -0.0819
vn 0.0000 0.9966 0.0819
vn 0.0000 0.9992 0.0410
vn -0.0710 0.9966 -0.0408
vn -0.0709 0.9966 0.0409
vn 0.0357 0.9992 -0.0205
vn 0.0709 0.9966 0.0409
vn 0.0710 0.9966 -0.0408
vn 0.8103 0.3529 0.4678
vn 0.0000 0.3529 0.9357
vn 0.8112 0.3527 -0.4665
vn 0.7938 0.4017 -0.4565
vn 0.8103 0.3529 -0.4678
vn 0.0000 0.3529 -0.9357
vn -0.8103 0.3529 -0.4678
vn -0.7938 0.4017 -0.4565
vn -0.8112 0.3527 -0.4665
vn -0.8103 0.3529 0.4678
vn 0.0000 0.4021 0.9156
vn 0.6069 0.7133 0.3504
vn 0.0000 0.7133 0.7008
vn 0.3016 0.9374 0.1741
vn 0.0000 0.9374 0.3482
vn 0.6077 0.7132 -0.3495
vn 0.3020 0.9374 -0.1737
vn 0.5308 0.7906 -0.3053
vn 0.2094 0.9704 -0.1204
vn 0.6069 0.7133 -0.3504
vn 0.3016 0.9374 -0.1741
vn 0.0000 0.7133 -0.7008
vn 0.0000 0.9374 -0.3482
vn -0.6069 0.7133 -0.3504
vn -0.3016 0.9374 -0.1741
vn -0.5308 0.7906 -0.3053
vn -0.2094 0.9704 -0.1204
vn -0.6077 0.7132 -0.3495
vn -0.3020 0.9374 -0.1737
vn -0.6069 0.7133 0.3504
vn -0.3016 0.9374 0.1741
vn 0.0000 0.7910 0.6118
vn 0.0000 0.9705 0.2412
# 64 vertex normals

vt 0.6726 0.1629 0.9384
vt 0.6726 0.1629 0.5000
vt 0.8457 0.2616 0.5000
vt 0.8457 0.2616 0.9384
vt 0.8457 0.4590 0.5000
vt 0.8457 0.4590 0.9384
vt 0.6726 0.5585 0.5000
vt 0.6726 0.5585 0.9384
vt 0.6726 0.7568 0.5000
vt 0.6726 0.7568 0.9384
vt 0.4994 0.8555 0.5000
vt 0.4994 0.8555 0.9384
vt 0.3262 0.7568 0.5000
vt 0.3262 0.7568 0.9384
vt 0.3262 0.5585 0.5000
vt 0.3262 0.5585 0.9384
vt 0.1531 0.4590 0.5000
vt 0.1531 0.4590 0.9384
vt 0.1531 0.2616 0.5000
vt 0.1531 0.2616 0.9384
vt 0.3262 0.1629 0.5000
vt 0.3262 0.1629 0.9384
vt 0.4994 0.2616 0.5000
vt 0.4994 0.2616 0.9384
vt 0.3375 0.7504 1.5000
vt 0.3375 0.5522 1.5000
vt 0.6613 0.7504 1.5000
vt 0.4994 0.8427 1.5000
vt 0.3262 0.1757 1.5000
vt 0.4994 0.2744 1.5000
vt 0.1643 0.4527 1.5000
vt 0.1643 0.2680 1.5000
vt 0.6613 0.5522 1.5000
vt 0.6726 0.1757 1.5000
vt 0.8345 0.2680 1.5000
vt 0.8345 0.4527 1.5000
vt 0.8450 0.2620 1.1841
vt 0.6726 0.1637 1.1841
vt 0.8450 0.4586 1.1841
vt 0.6719 0.5581 1.1841
vt 0.6719 0.7564 1.1841
vt 0.4994 0.8547 1.1841
vt 0.3269 0.7564 1.1841
vt 0.3269 0.5581 1.1841
vt 0.1538 0.4586 1.1841
vt 0.1538 0.2620 1.1841
vt 0.3262 0.1637 1.1841
vt 0.4994 0.2624 1.1841
vt 0.8429 0.2632 1.3596
vt 0.6726 0.1661 1.3596
vt 0.8394 0.2652 1.4649
vt 0.6726 0.1701 1.4649
vt 0.8429 0.4575 1.3596
vt 0.8394 0.4555 1.4649
vt 0.6697 0.5570 1.3596
vt 0.6662 0.5550 1.4649
vt 0.6697 0.7552 1.3596
vt 0.6662 0.7532 1.4649
vt 0.4994 0.8523 1.3596
vt 0.4994 0.8483 1.4649
vt 0.3290 0.7552 1.3596
vt 0.3326 0.7532 1.4649
vt 0.3290 0.5570 1.3596
vt 0.3326 0.5550 1.4649
vt 0.1559 0.4575 1.3596
vt 0.1594 0.4555 1.4649
vt 0.1559 0.2632 1.3596
vt 0.1594 0.2652 1.4649
vt 0.3262 0.1661 1.3596
vt 0.3262 0.1701 1.4649
vt 0.4994 0.2648 1.3596
vt 0.4994 0.2688 1.4649
# 72 texture coords

g Shape003
usemtl 01___Default
f 1/1/1 2/2/2 3/3/3 4/4/4 
f 4/4/4 3/3/3 5/5/5 6/6/6 
f 6/6/6 5/5/5 7/7/5 8/8/7 
f 8/8/7 7/7/5 9/9/8 10/10/9 
f 10/10/9 9/9/8 11/11/10 12/12/11 
f 12/12/11 11/11/10 13/13/12 14/14/13 
f 14/14/13 13/13/12 15/15/14 16/16/15 
f 16/16/15 15/15/14 17/17/14 18/18/16 
f 18/18/16 17/17/14 19/19/17 20/20/18 
f 20/20/18 19/19/17 21/21/2 22/22/1 
f 22/22/1 21/21/2 23/23/2 24/24/19 
f 24/24/19 23/23/2 2/2/2 1/1/1 
f 3/3/20 2/2/20 23/23/20 5/5/20 
f 7/7/20 5/5/20 23/23/20 15/15/20 
f 21/21/20 19/19/20 17/17/20 23/23/20 
f 23/23/20 17/17/20 15/15/20 
f 7/7/20 15/15/20 11/11/20 9/9/20 
f 11/11/20 15/15/20 13/13/20 
f 25/25/21 26/26/22 27/27/23 28/28/24 
f 29/29/25 30/30/26 31/31/27 32/32/28 
f 26/26/22 31/31/27 30/30/26 33/33/29 
f 34/34/25 35/35/30 36/36/31 30/30/26 
f 30/30/26 36/36/31 33/33/29 
f 26/26/22 33/33/29 27/27/23 
f 1/1/1 4/4/4 37/37/32 38/38/33 
f 4/4/4 6/6/6 39/39/34 37/37/32 
f 6/6/6 8/8/7 40/40/35 39/39/34 
f 8/8/7 10/10/9 41/41/36 40/40/35 
f 10/10/9 12/12/11 42/42/37 41/41/36 
f 12/12/11 14/14/13 43/43/38 42/42/37 
f 14/14/13 16/16/15 44/44/39 43/43/38 
f 16/16/15 18/18/16 45/45/40 44/44/39 
f 18/18/16 20/20/18 46/46/41 45/45/40 
f 20/20/18 22/22/1 47/47/33 46/46/41 
f 22/22/1 24/24/19 48/48/42 47/47/33 
f 24/24/19 1/1/1 38/38/33 48/48/42 
f 38/38/33 37/37/32 49/49/43 50/50/44 
f 50/50/44 49/49/43 51/51/45 52/52/46 
f 52/52/46 51/51/45 35/35/30 34/34/25 
f 37/37/32 39/39/34 53/53/47 49/49/43 
f 49/49/43 53/53/47 54/54/48 51/51/45 
f 51/51/45 54/54/48 36/36/31 35/35/30 
f 53/53/47 39/39/34 40/40/35 55/55/49 
f 54/54/48 53/53/47 55/55/49 56/56/50 
f 36/36/31 54/54/48 56/56/50 33/33/29 
f 40/40/35 41/41/36 57/57/51 55/55/49 
f 55/55/49 57/57/51 58/58/52 56/56/50 
f 56/56/50 58/58/52 27/27/23 33/33/29 
f 41/41/36 42/42/37 59/59/53 57/57/51 
f 57/57/51 59/59/53 60/60/54 58/58/52 
f 58/58/52 60/60/54 28/28/24 27/27/23 
f 42/42/37 43/43/38 61/61/55 59/59/53 
f 59/59/53 61/61/55 62/62/56 60/60/54 
f 60/60/54 62/62/56 25/25/21 28/28/24 
f 61/61/55 43/43/38 44/44/39 63/63/57 
f 62/62/56 61/61/55 63/63/57 64/64/58 
f 25/25/21 62/62/56 64/64/58 26/26/22 
f 44/44/39 45/45/40 65/65/59 63/63/57 
f 63/63/57 65/65/59 66/66/60 64/64/58 
f 64/64/58 66/66/60 31/31/27 26/26/22 
f 45/45/40 46/46/41 67/67/61 65/65/59 
f 65/65/59 67/67/61 68/68/62 66/66/60 
f 66/66/60 68/68/62 32/32/28 31/31/27 
f 46/46/41 47/47/33 69/69/44 67/67/61 
f 67/67/61 69/69/44 70/70/46 68/68/62 
f 68/68/62 70/70/46 29/29/25 32/32/28 
f 69/69/44 47/47/33 48/48/42 71/71/63 
f 70/70/46 69/69/44 71/71/63 72/72/64 
f 29/29/25 70/70/46 72/72/64 30/30/26 
f 48/48/42 38/38/33 50/50/44 71/71/63 
f 71/71/63 50/50/44 52/52/46 72/72/64 
f 72/72/64 52/52/46 34/34/25 30/30/26 
# 68 polygons - 4 triangles

